<svg width="120" height="85" viewBox="0 0 120 85" fill="none" xmlns="http://www.w3.org/2000/svg">
<path d="M16.1627 57.9323C18.6191 57.4588 20.5913 57.7798 22.0793 58.8969C23.5674 60.0141 24.3106 61.8069 24.3106 64.2723C24.3106 65.0684 24.2361 65.8549 24.0855 66.6333C23.9349 67.4118 23.6872 68.1886 23.3423 68.9655C22.9958 69.7423 22.5635 70.4421 22.0437 71.0665C21.5239 71.6892 20.8633 72.2398 20.0602 72.7133C19.257 73.1884 18.3519 73.5238 17.3447 73.718L12.6928 74.6169C11.7326 74.8031 11.0428 74.6939 10.6266 74.2894C10.2089 73.8866 10 73.0519 10 71.7888V61.908C10 60.051 10.897 58.9483 12.6928 58.6016L16.1627 57.9323ZM15.4535 70.898C15.8632 70.8193 16.221 70.707 16.5287 70.5625C16.8363 70.418 17.1262 70.2046 17.403 69.9253C17.6783 69.646 17.9034 69.3025 18.0766 68.8948C18.2499 68.4872 18.3875 67.98 18.4895 67.3748C18.5915 66.7697 18.6434 66.0699 18.6434 65.2738C18.6434 64.3846 18.564 63.6463 18.407 63.0605C18.2499 62.4746 18.0216 62.0509 17.722 61.7876C17.4225 61.526 17.0954 61.3623 16.7424 61.2981C16.3878 61.2339 15.9587 61.2435 15.4551 61.3238V70.898H15.4535Z" fill="#0129BD"/>
<path d="M31.8657 71.0535C29.9437 71.4243 28.3585 71.2397 27.1068 70.4965C25.8551 69.755 25.2285 68.5336 25.2285 66.8322C25.2285 64.9912 25.8454 63.4166 27.0825 62.1085C28.318 60.8004 29.9129 59.9577 31.8657 59.5822C33.7083 59.2258 35.0571 59.29 35.9169 59.7716C36.7751 60.2531 37.2042 61.0572 37.2042 62.1807C37.2042 62.399 37.1767 62.6157 37.1216 62.8292C37.0666 63.0427 36.9791 63.2593 36.8626 63.476C36.7444 63.6943 36.5873 63.9046 36.3897 64.1052C36.1922 64.3074 35.9688 64.4984 35.7162 64.6798C35.4636 64.8612 35.164 65.0201 34.8191 65.1581C34.4726 65.2946 34.1018 65.4021 33.7083 65.4775L30.3776 66.1436C30.5347 66.6123 30.818 66.9526 31.2277 67.1612C31.6374 67.3715 32.1571 67.4148 32.787 67.2929C33.4638 67.1628 34.1569 66.943 34.8661 66.6348C35.1656 66.5 35.4927 66.3106 35.8457 66.0714C36.2003 65.8323 36.4561 65.6958 36.6132 65.6653C36.8804 65.614 37.0892 65.6525 37.2398 65.7793C37.3888 65.9061 37.4649 66.0875 37.4649 66.3218C37.4649 66.6027 37.3386 66.967 37.0876 67.4132C36.835 67.8594 36.4853 68.3249 36.0368 68.8096C35.5882 69.2944 34.994 69.7486 34.254 70.1723C33.5108 70.5961 32.7158 70.8898 31.8657 71.0535ZM30.2594 64.6686C31.3459 64.4439 31.9369 64.3219 32.0308 64.3026C32.2672 64.2577 32.4405 64.0827 32.5506 63.781C32.6299 63.5627 32.6688 63.2738 32.6688 62.9159C32.6688 61.932 32.3692 61.4986 31.7718 61.6142C31.5515 61.6575 31.3346 61.8148 31.1224 62.0909C30.9103 62.3653 30.7241 62.7329 30.5671 63.1935C30.4084 63.6526 30.3064 64.1437 30.2594 64.6686Z" fill="#0129BD"/>
<path d="M48.1387 64.8229C48.5953 64.7346 48.9499 64.7298 49.2009 64.8052C49.4518 64.8823 49.6267 65.0283 49.7206 65.2434C49.8145 65.4601 49.8631 65.7699 49.8631 66.1759C49.8631 66.6912 49.6866 67.0651 49.332 67.2963C48.9774 67.529 48.3524 67.7312 47.4537 67.9046L40.4863 69.2496C39.9503 69.3523 39.4581 69.2641 39.0095 68.9848C38.561 68.7039 38.3359 68.2689 38.3359 67.6751C38.3359 67.0202 38.4218 66.4921 38.595 66.0909C38.7683 65.6912 39.1617 65.1278 39.7754 64.3991L42.8697 60.5711L41.1453 60.9033C40.2952 61.067 39.6815 61.0686 39.3026 60.9081C38.9253 60.7476 38.7359 60.4009 38.7359 59.8697C38.7359 59.2918 38.8687 58.8809 39.1374 58.6338C39.4046 58.3866 39.9632 58.1811 40.815 58.0174L47.9945 56.6323C48.5775 56.5199 49.0373 56.5905 49.3757 56.8457C49.7141 57.1009 49.8842 57.5086 49.8842 58.0704C49.8842 58.6017 49.8129 59.0206 49.672 59.3288C49.5296 59.6369 49.1604 60.1843 48.5613 60.9707L44.9941 65.4521L48.1387 64.8229Z" fill="#0129BD"/>
<path d="M56.3857 54.8491C57.8494 54.5666 59.0703 54.6276 60.0467 55.032C61.0231 55.4365 61.5105 55.9902 61.5105 56.6917C61.5105 56.8939 61.423 57.0993 61.2514 57.3032C61.0781 57.5086 60.8579 57.637 60.5908 57.6884C60.3544 57.7333 60.0953 57.7028 59.8119 57.5937C59.5286 57.4846 59.2598 57.361 59.0088 57.2213C58.7562 57.0833 58.4259 56.9741 58.0162 56.8971C57.6065 56.8201 57.1742 56.8249 56.7176 56.9132C56.1039 57.0319 55.7963 57.2791 55.7963 57.6531C55.7963 57.9179 55.9533 58.0993 56.2691 58.194C56.5832 58.2887 57.0447 58.3641 57.6503 58.4187C58.2559 58.4733 58.7173 58.5487 59.0315 58.6434C60.2119 58.8681 61.0231 59.1988 61.4635 59.6369C61.9039 60.0751 62.1241 60.7236 62.1241 61.5807C62.1241 62.0028 62.0059 62.4426 61.7695 62.9016C61.5331 63.3607 61.1785 63.8197 60.7073 64.2772C60.2345 64.7346 59.5933 65.1551 58.7821 65.5387C57.9709 65.9207 57.0463 66.2129 56.0068 66.4135C53.9763 66.8051 52.4558 66.6382 51.4487 65.9127C50.9597 65.5548 50.7168 65.1327 50.7168 64.6495C50.7168 64.3526 50.8156 64.1006 51.0115 63.8903C51.209 63.6801 51.4875 63.5404 51.8502 63.4714C52.2129 63.4024 52.7635 63.4714 53.5035 63.6785C54.2434 63.8871 54.9284 63.9305 55.5582 63.8085C56.4245 63.6416 56.8569 63.3462 56.8569 62.9257C56.8569 62.7074 56.6285 62.5758 56.1719 62.5309C55.7153 62.4859 55.1162 62.4426 54.3762 62.3976C53.6362 62.3527 53.0452 62.2323 52.6048 62.0365C51.9118 61.8744 51.4276 61.5967 51.1524 61.2051C50.8771 60.8134 50.7395 60.2982 50.7395 59.6578C50.7395 58.5648 51.2625 57.5712 52.3101 56.674C53.3594 55.7816 54.7163 55.1717 56.3857 54.8491Z" fill="#0129BD"/>
<path d="M76.0799 58.8664C76.4895 58.7877 76.7453 58.6401 76.8474 58.425C76.9494 58.2099 77.0012 57.8375 77.0012 57.3063L77.0255 53.1106C77.0255 52.3932 77.2295 51.8266 77.6392 51.4125C78.0488 50.9984 78.7418 50.6966 79.7182 50.5072C80.1441 50.4254 80.489 50.4045 80.7578 50.4478C81.0249 50.4896 81.2581 50.5971 81.454 50.7705C81.6516 50.9438 81.8005 51.2343 81.9025 51.6436C82.0046 52.0529 82.079 52.5537 82.1276 53.1459C82.1746 53.7382 82.1989 54.5022 82.1989 55.438C82.1989 56.2662 82.0693 57.043 81.8086 57.7717C81.5496 58.5004 81.2176 59.1152 80.8161 59.6143C80.4145 60.1135 79.9465 60.5581 79.4106 60.9513C78.8746 61.3446 78.3403 61.6495 77.8043 61.8694C77.2684 62.0893 76.734 62.2514 76.1981 62.3558C74.9221 62.6013 73.7498 62.4312 72.6795 61.8405C71.6238 62.8405 70.4596 63.4633 69.1836 63.7088C68.6477 63.8116 68.1166 63.8565 67.5887 63.8404C67.0608 63.826 66.5265 63.7265 65.9824 63.5419C65.44 63.3589 64.9623 63.0957 64.5543 62.7522C64.1446 62.4103 63.8111 61.924 63.5504 61.2948C63.2913 60.6656 63.1602 59.9386 63.1602 59.1103C63.1602 57.5647 63.2314 56.409 63.3723 55.6402C63.5148 54.8714 63.7495 54.3112 64.0815 53.9581C64.4118 53.605 64.9316 53.361 65.6408 53.2246C66.3014 53.0962 66.8293 53.0737 67.2228 53.154C67.6162 53.2342 67.8964 53.406 68.0615 53.6708C68.2267 53.9356 68.3093 54.3096 68.3093 54.7943L68.3335 58.9579C68.3335 59.1922 68.3368 59.3591 68.3449 59.4586C68.353 59.5582 68.3724 59.6801 68.4032 59.8214C68.4339 59.9642 68.4825 60.0557 68.5457 60.0991C68.6088 60.1424 68.6946 60.1761 68.8047 60.2018C68.9148 60.2275 69.0557 60.2227 69.2306 60.1905C69.8605 60.0686 70.2296 59.8182 70.3414 59.4378C70.1989 58.5293 70.1292 57.5358 70.1292 56.4588C70.1292 55.5535 70.16 54.8409 70.2232 54.3225C70.2863 53.804 70.4239 53.3674 70.6361 53.0127C70.8482 52.6596 71.1121 52.406 71.4279 52.2519C71.742 52.0978 72.1921 51.9646 72.7734 51.8507C73.2932 51.7512 73.7029 51.7174 74.0008 51.7544C74.3003 51.7897 74.5432 51.947 74.7327 52.2214C74.9221 52.4975 75.0468 52.8827 75.1099 53.3771C75.1731 53.873 75.2039 54.5728 75.2039 55.4781C75.2039 56.5711 75.1407 57.5968 75.0144 58.5582C75.1278 58.8792 75.4824 58.9819 76.0799 58.8664Z" fill="#0129BD"/>
<path d="M87.6085 60.2944C86.3649 60.5352 85.3335 60.2302 84.5141 59.3811C83.6948 58.5321 83.2852 57.2336 83.2852 55.4857C83.2852 53.7057 83.69 52.2113 84.5012 51.0011C85.3124 49.7909 86.3471 49.0638 87.6068 48.8215C88.8828 48.5759 90.0632 48.7926 91.1497 49.4715C91.5755 48.6096 92.2605 48.0863 93.2045 47.905C94.0545 47.7413 94.7168 47.7974 95.188 48.0719C95.6608 48.348 95.8972 48.9772 95.8972 49.9611V56.0474C95.8972 56.9832 95.6997 57.6734 95.3062 58.1164C94.9127 58.5594 94.2197 58.8755 93.2271 59.0682C92.1876 59.2688 91.5027 59.1131 91.1723 58.5979C90.1668 59.4646 88.9783 60.0296 87.6085 60.2944ZM90.8193 51.7844C90.5522 51.3831 90.2057 51.2242 89.7798 51.3061C89.3702 51.3847 89.0398 51.7459 88.7872 52.3879C88.5346 53.0299 88.41 53.7329 88.41 54.4986C88.41 55.216 88.5282 55.834 88.7646 56.3492C89.001 56.866 89.3313 57.0827 89.7571 57.0008C90.1976 56.9158 90.5522 56.6365 90.8193 56.163V51.7844Z" fill="#0129BD"/>
<path d="M102.466 58.6443C102.466 59.9091 102.253 60.8513 101.828 61.4724C101.402 62.0936 100.749 62.4885 99.8667 62.6586C98.9843 62.8287 98.3398 62.7083 97.9302 62.2942C97.5205 61.8817 97.3165 61.0503 97.3165 59.8016L97.2695 49.9305C97.2695 48.9626 97.5059 48.2066 97.9787 47.6625C98.4516 47.1184 99.0814 46.7701 99.8684 46.6192C100.482 46.5005 100.979 46.4796 101.356 46.555C101.734 46.6305 102.017 46.868 102.207 47.2693C103.293 46.2164 104.459 45.5711 105.702 45.3304C106.962 45.088 107.994 45.4106 108.797 46.3014C109.6 47.1923 110.001 48.5357 110.001 50.3301C110.001 52.078 109.592 53.5338 108.774 54.6991C107.955 55.8644 106.923 56.5658 105.68 56.8065C104.483 57.0377 103.413 56.9799 102.467 56.63V58.6443H102.466ZM102.466 53.8918C102.733 54.277 103.087 54.4279 103.528 54.3428C103.954 54.2609 104.284 53.9158 104.52 53.3091C104.757 52.7024 104.875 52.0395 104.875 51.3205C104.875 50.5565 104.749 49.9016 104.498 49.3559C104.245 48.8118 103.915 48.579 103.505 48.6577C103.079 48.7395 102.733 49.0333 102.466 49.5372V53.8918Z" fill="#0129BD"/>
<path d="M14.6064 46.3473C14.6064 46.3473 8.95368 34.5341 15.2022 27.8153C20.7755 21.822 21.4427 23.3212 24.3896 16.4226C25.6283 13.5207 28.0895 11.2864 31.1304 10.3716C34.032 9.49841 37.8599 9.89967 40.1656 14.4837C40.7987 15.7437 41.1922 17.1064 41.3622 18.5044C41.4772 19.4514 41.5759 20.7146 41.5193 21.9906C41.3849 25.0482 38.6468 26.5265 36.0285 25.7111C31.9028 24.4254 28.1673 23.0162 20.884 29.3177C20.884 29.3177 18.0844 32.1747 18.6997 37.5356C18.9054 39.3268 19.4688 41.0603 20.3319 42.6493L22.6376 46.7293L20.2007 49.1096C20.2007 49.108 18.7936 43.9574 14.6064 46.3473Z" fill="#0129BD"/>
<path d="M20.6071 47.3278C19.7765 45.6184 17.6877 44.9138 15.9729 45.7821C14.3586 46.5991 13.6688 48.5557 14.4169 50.1912C15.2103 51.9295 17.2877 52.6694 19.0122 51.846C19.3895 51.6663 19.7182 51.4271 19.9918 51.1446L20.2169 51.3677L22.0094 53.0803C22.0094 53.0803 27.003 57.0914 34.6797 54.6533C41.8123 52.3869 45.8895 44.9635 43.8574 37.8178C43.8315 37.7247 43.5546 36.7649 43.5271 36.6702C42.1896 32.2194 41.5387 29.807 40.3405 27.6883C38.9334 25.1989 36.2374 23.711 33.36 23.8233C29.7006 23.9662 24.4333 25.0079 20.8824 29.2998C20.8824 29.2998 13.8161 36.7232 20.348 44.3761L21.896 46.6424L20.7723 47.6649L20.6071 47.3278Z" fill="white"/>
<path d="M36.708 54.3571C36.1024 54.646 35.4725 54.8947 34.8232 55.1018C33.0226 55.6748 31.214 55.9445 29.4507 55.9075C28.0355 55.877 26.6462 55.6491 25.3217 55.2302C23.0548 54.5143 21.7643 53.4903 21.7108 53.447C21.6995 53.439 21.6898 53.4293 21.6801 53.4197L19.9783 51.7938C19.7451 51.98 19.4909 52.1405 19.2172 52.2705C18.2651 52.7247 17.1948 52.7777 16.2023 52.4214C15.2097 52.0634 14.4228 51.3411 13.9856 50.3861C13.5727 49.4841 13.529 48.4681 13.8625 47.5259C14.1961 46.5838 14.868 45.8149 15.7586 45.3655C16.6994 44.8888 17.7697 44.8102 18.772 45.144C19.6917 45.4506 20.4446 46.0685 20.9158 46.8983L21.2736 46.5725L19.9686 44.6609C18.4303 42.852 17.5009 40.9002 17.2062 38.8586C16.9698 37.2182 17.1398 35.5217 17.7162 33.8187C18.6586 31.0307 20.3523 29.1753 20.5256 28.9891C24.1623 24.6041 29.5009 23.503 33.3416 23.3522C34.841 23.2928 36.3258 23.6443 37.6325 24.3682C38.9425 25.092 40.0209 26.161 40.7544 27.4579C41.8474 29.392 42.495 31.5588 43.567 35.1509C43.6981 35.5891 43.8357 36.0514 43.9815 36.5361C44.0122 36.6372 44.2907 37.6083 44.3134 37.6917C45.3287 41.263 44.906 45.0268 43.1217 48.2899C41.6644 50.9543 39.4283 53.0586 36.708 54.3571ZM22.3197 52.7279C22.4589 52.8339 23.6587 53.7263 25.6504 54.349C26.8858 54.7342 28.1812 54.9429 29.4992 54.9686C31.1492 55.0007 32.8429 54.7439 34.5334 54.2062C37.8706 53.1452 40.6232 50.8853 42.2878 47.8421C43.954 44.7941 44.3474 41.279 43.4002 37.9453C43.3694 37.8346 43.099 36.8924 43.0715 36.8041C42.9258 36.3178 42.7881 35.8572 42.657 35.4174C41.6029 31.8895 40.9665 29.7595 39.927 27.9169C39.2793 26.7725 38.3272 25.8288 37.1711 25.1899C36.0166 24.5511 34.705 24.2414 33.3789 24.2927C29.7292 24.4356 24.6627 25.4724 21.2494 29.5974C21.2429 29.6055 21.2348 29.6135 21.2283 29.6215C21.2121 29.6392 19.5071 31.4577 18.6052 34.1478C18.0838 35.7063 17.93 37.2536 18.1486 38.7447C18.4222 40.6081 19.2836 42.401 20.7102 44.0734C20.7215 44.0863 20.7312 44.0991 20.7409 44.1136L22.2889 46.3799C22.42 46.5725 22.3893 46.8325 22.2176 46.9898L21.0939 48.0123C20.9838 48.1134 20.8316 48.1551 20.6843 48.1278C20.5369 48.1005 20.4122 48.0042 20.3475 47.871L20.1839 47.5339C19.8374 46.8197 19.2286 46.2884 18.4724 46.0348C17.7146 45.7828 16.9066 45.8406 16.1942 46.2034C15.5222 46.5436 15.0138 47.1247 14.7612 47.8373C14.5086 48.5516 14.5426 49.3188 14.8535 50.0009C15.1838 50.7232 15.7797 51.2705 16.5294 51.5402C17.2807 51.8098 18.0903 51.7697 18.8108 51.4262C19.1282 51.2737 19.4132 51.0715 19.6544 50.8211C19.7435 50.7296 19.8649 50.6783 19.9912 50.6767C20.1191 50.675 20.2406 50.7248 20.3313 50.8147L20.5531 51.0346L22.3197 52.7279Z" fill="#0129BD"/>
<path d="M27.5895 30.4923C28.4931 30.6673 31.7428 33.1888 32.0505 40.5945C32.0715 41.1146 31.9225 41.6362 31.5922 42.0375C31.1712 42.5479 30.4491 42.9106 29.3399 41.9251C29.2249 41.8224 29.1278 41.702 29.0517 41.5688C28.7958 41.1178 28.1805 39.9333 27.8308 38.4117L29.9795 36.63L27.345 36.3443C27.345 36.3443 25.1445 33.2947 26.3686 31.1632C26.6164 30.7299 27.0973 30.3976 27.5895 30.4923Z" fill="#0129BD"/>
<path d="M40.0194 20.1443C39.9805 20.1636 39.9368 20.1748 39.8914 20.178C39.6955 20.1925 39.5255 20.0464 39.5109 19.8522L39.4996 19.6901C39.3312 17.3435 39.1838 15.3163 36.7939 12.9408C36.6546 12.8028 36.6546 12.5797 36.7939 12.4433C36.9331 12.3052 37.1582 12.3068 37.2958 12.4433C39.8736 15.0033 40.0356 17.2552 40.2072 19.6403L40.2185 19.8024C40.2315 19.9501 40.1473 20.0849 40.0194 20.1443Z" fill="white"/>
<path d="M36.1453 28.4358C36.1453 28.4358 40.1334 29.5112 40.3066 37.6761C40.3131 37.9602 40.2483 38.2427 40.1107 38.4915C39.8209 39.0163 39.1926 39.6776 38.0478 38.8301C36.3477 37.5686 36.2116 34.9106 36.2116 34.9106L37.7515 33.8143L35.3713 33.3826C35.3713 33.381 33.221 27.9077 36.1453 28.4358Z" fill="#0129BD"/>
<path d="M14.7027 42.4788C14.6881 42.4852 14.6735 42.4916 14.659 42.4964C14.4727 42.5574 14.272 42.4563 14.2104 42.2717C13.4705 40.0311 13.0138 36.1837 13.5109 34.0281C13.5547 33.8388 13.7457 33.72 13.9368 33.7633C14.1279 33.8067 14.2477 33.996 14.204 34.1854C13.8234 35.8338 14.0064 39.389 14.8873 42.0534C14.9423 42.222 14.8614 42.4033 14.7027 42.4788Z" fill="white"/>
<path d="M39.8286 21.4009C40.0575 21.4009 40.2431 21.2169 40.2431 20.99C40.2431 20.7631 40.0575 20.5791 39.8286 20.5791C39.5997 20.5791 39.4141 20.7631 39.4141 20.99C39.4141 21.2169 39.5997 21.4009 39.8286 21.4009Z" fill="white"/>
<path d="M14.9204 44.0239C15.1493 44.0239 15.3349 43.84 15.3349 43.613C15.3349 43.3861 15.1493 43.2021 14.9204 43.2021C14.6914 43.2021 14.5059 43.3861 14.5059 43.613C14.5059 43.84 14.6914 44.0239 14.9204 44.0239Z" fill="white"/>
<path d="M36.5171 44.698C36.4103 44.698 36.3018 44.6915 36.1917 44.6771C35.9148 44.6402 35.7205 44.3882 35.7577 44.1121C35.795 43.8376 36.0508 43.6418 36.3277 43.682C37.1017 43.7847 37.8174 43.2438 37.9226 42.4766C37.9728 42.1042 37.874 41.735 37.6441 41.4365C37.4142 41.1379 37.0806 40.9469 36.705 40.8956C35.9277 40.7913 35.2153 41.3338 35.11 42.101C35.0728 42.3754 34.817 42.5697 34.5401 42.5311C34.2632 42.4942 34.0689 42.2422 34.1061 41.9662C34.2842 40.65 35.51 39.7207 36.8394 39.8988C37.4838 39.9839 38.0538 40.3129 38.4489 40.825C38.8423 41.337 39.0123 41.9694 38.9265 42.6082C38.7614 43.8168 37.7154 44.698 36.5171 44.698Z" fill="#0129BD"/>
<path d="M16.5073 49.419C16.4296 49.419 16.3503 49.3981 16.2774 49.3548C16.0685 49.2296 16.0021 48.9599 16.1284 48.7513C16.5867 48.0033 17.3882 47.5571 18.2707 47.5571C18.5152 47.5571 18.7127 47.7529 18.7127 47.9953C18.7127 48.2377 18.5152 48.4335 18.2707 48.4335C17.7007 48.4335 17.1825 48.7224 16.8846 49.2071C16.8036 49.3436 16.6563 49.419 16.5073 49.419Z" fill="#0129BD"/>
<path d="M27.8024 46.936C27.8024 46.936 31.5476 51.0129 38.3661 48.8717C38.3661 48.8717 36.7615 53.3434 31.4731 51.74C26.9021 50.3532 27.8024 46.936 27.8024 46.936Z" fill="#0129BD"/>
<path d="M32.8163 52.8175C32.3807 52.8175 31.9517 52.7581 31.5339 52.6409C31.4772 52.6232 26.4447 51.0567 27.0082 46.0602C26.9612 45.8948 26.6277 45.431 26.2763 45.0458C26.1274 44.8837 26.1241 44.6365 26.2666 44.4695C26.4091 44.3026 26.6552 44.2641 26.843 44.3829C26.9094 44.4246 33.5401 48.5576 39.0098 46.8386C39.6623 46.6332 40.2922 46.2833 40.8784 45.7969C41.0662 45.6428 41.3431 45.6669 41.5002 45.8515C41.6572 46.0361 41.6329 46.3122 41.4467 46.4678L40.7796 47.02C40.5675 47.349 39.5522 48.8658 38.0593 50.2734C36.2766 51.9555 34.4873 52.8175 32.8163 52.8175ZM27.8874 45.9606C27.8955 46.02 27.8971 46.0762 27.8907 46.1276C27.3871 50.4131 31.6035 51.7437 31.7833 51.7982C34.8047 52.6537 37.7824 49.511 39.2041 47.6957C34.9537 48.9942 30.2482 47.1404 27.8874 45.9606ZM27.0131 46.0746H27.0147H27.0131Z" fill="#0129BD"/>
</svg>
