<svg width="120" height="85" viewBox="0 0 120 85" fill="none" xmlns="http://www.w3.org/2000/svg">
<path d="M16.1628 57.9328C18.6192 57.4593 20.5915 57.7803 22.0795 58.8974C23.5676 60.0146 24.3109 61.8075 24.3109 64.2729C24.3109 65.069 24.2364 65.8555 24.0858 66.634C23.9352 67.4124 23.6875 68.1893 23.3426 68.9662C22.996 69.743 22.5637 70.4428 22.0439 71.0672C21.5241 71.69 20.8635 72.2405 20.0604 72.714C19.2572 73.1891 18.352 73.5246 17.3449 73.7188L12.6928 74.6177C11.7326 74.8039 11.0428 74.6947 10.6266 74.2902C10.2089 73.8874 10 73.0527 10 71.7895V61.9086C10 60.0515 10.8971 58.9488 12.6928 58.6021L16.1628 57.9328ZM15.4536 70.8987C15.8633 70.82 16.2211 70.7077 16.5288 70.5632C16.8364 70.4188 17.1263 70.2053 17.4032 69.926C17.6784 69.6467 17.9035 69.3032 18.0768 68.8955C18.25 68.4878 18.3877 67.9806 18.4897 67.3755C18.5917 66.7704 18.6435 66.0706 18.6435 65.2745C18.6435 64.3852 18.5642 63.6469 18.4071 63.061C18.25 62.4752 18.0217 62.0514 17.7222 61.7882C17.4226 61.5266 17.0955 61.3629 16.7425 61.2987C16.3879 61.2345 15.9588 61.2441 15.4552 61.3243V70.8987H15.4536Z" fill="#FF0D23"/>
<path d="M31.8677 71.0542C29.9457 71.425 28.3605 71.2404 27.1088 70.4972C25.8571 69.7557 25.2305 68.5342 25.2305 66.8328C25.2305 64.9918 25.8474 63.4172 27.0845 62.1091C28.32 60.8009 29.9149 59.9582 31.8677 59.5826C33.7104 59.2263 35.0593 59.2905 35.9191 59.772C36.7773 60.2536 37.2064 61.0577 37.2064 62.1813C37.2064 62.3996 37.1789 62.6163 37.1238 62.8297C37.0687 63.0432 36.9813 63.2599 36.8647 63.4766C36.7465 63.6949 36.5894 63.9051 36.3919 64.1058C36.1944 64.308 35.9709 64.499 35.7183 64.6804C35.4657 64.8618 35.1661 65.0207 34.8212 65.1587C34.4747 65.2952 34.1039 65.4027 33.7104 65.4781L30.3797 66.1442C30.5367 66.6129 30.8201 66.9532 31.2298 67.1619C31.6394 67.3721 32.1592 67.4155 32.7891 67.2935C33.4659 67.1635 34.159 66.9436 34.8682 66.6354C35.1678 66.5006 35.4948 66.3112 35.8478 66.072C36.2025 65.8329 36.4583 65.6964 36.6154 65.6659C36.8825 65.6146 37.0914 65.6531 37.242 65.7799C37.391 65.9067 37.4671 66.0881 37.4671 66.3224C37.4671 66.6033 37.3408 66.9677 37.0898 67.4139C36.8372 67.8601 36.4874 68.3256 36.0389 68.8103C35.5904 69.295 34.9961 69.7493 34.2561 70.173C33.5129 70.5968 32.7178 70.8905 31.8677 71.0542ZM30.2615 64.6692C31.348 64.4445 31.939 64.3225 32.0329 64.3032C32.2693 64.2583 32.4426 64.0833 32.5527 63.7816C32.632 63.5633 32.6709 63.2743 32.6709 62.9164C32.6709 61.9325 32.3713 61.4991 31.7738 61.6147C31.5536 61.658 31.3366 61.8153 31.1245 62.0914C30.9124 62.3659 30.7262 62.7334 30.5691 63.1941C30.4104 63.6531 30.3084 64.1443 30.2615 64.6692Z" fill="#FF0D23"/>
<path d="M48.1408 64.823C48.5974 64.7347 48.952 64.7299 49.203 64.8054C49.454 64.8824 49.6289 65.0285 49.7228 65.2436C49.8167 65.4602 49.8653 65.77 49.8653 66.1761C49.8653 66.6913 49.6888 67.0653 49.3342 67.2965C48.9795 67.5292 48.3545 67.7314 47.4558 67.9048L40.4882 69.2499C39.9523 69.3526 39.46 69.2643 39.0115 68.985C38.563 68.7041 38.3379 68.2691 38.3379 67.6753C38.3379 67.0204 38.4237 66.4923 38.597 66.091C38.7702 65.6914 39.1637 65.128 39.7774 64.3993L42.8718 60.5711L41.1473 60.9034C40.2972 61.0671 39.6835 61.0687 39.3046 60.9082C38.9273 60.7477 38.7378 60.401 38.7378 59.8697C38.7378 59.2919 38.8706 58.881 39.1394 58.6338C39.4066 58.3866 39.9652 58.1812 40.8169 58.0175L47.9967 56.6323C48.5796 56.5199 49.0395 56.5905 49.3779 56.8457C49.7163 57.101 49.8863 57.5086 49.8863 58.0704C49.8863 58.6017 49.8151 59.0206 49.6742 59.3288C49.5317 59.637 49.1625 60.1843 48.5634 60.9708L44.9962 65.4522L48.1408 64.823Z" fill="#FF0D23"/>
<path d="M56.3877 54.8495C57.8515 54.567 59.0724 54.628 60.0488 55.0325C61.0252 55.437 61.5126 55.9908 61.5126 56.6922C61.5126 56.8944 61.4252 57.0999 61.2535 57.3037C61.0803 57.5092 60.8601 57.6376 60.5929 57.6889C60.3565 57.7339 60.0974 57.7034 59.814 57.5942C59.5307 57.4851 59.2619 57.3615 59.0109 57.2219C58.7583 57.0838 58.428 56.9747 58.0183 56.8976C57.6086 56.8206 57.1763 56.8254 56.7197 56.9137C56.106 57.0325 55.7983 57.2796 55.7983 57.6536C55.7983 57.9185 55.9554 58.0998 56.2711 58.1945C56.5853 58.2892 57.0467 58.3647 57.6523 58.4193C58.2579 58.4738 58.7194 58.5493 59.0336 58.644C60.214 58.8687 61.0252 59.1993 61.4657 59.6375C61.9061 60.0757 62.1263 60.7242 62.1263 61.5813C62.1263 62.0034 62.0081 62.4432 61.7717 62.9023C61.5353 63.3613 61.1807 63.8204 60.7095 64.2778C60.2367 64.7353 59.5954 65.1558 58.7842 65.5394C57.973 65.9214 57.0484 66.2136 56.0088 66.4142C53.9783 66.8058 52.4578 66.6389 51.4507 65.9134C50.9616 65.5555 50.7188 65.1333 50.7188 64.6502C50.7188 64.3533 50.8175 64.1013 51.0135 63.891C51.211 63.6807 51.4895 63.5411 51.8522 63.4721C52.2149 63.4031 52.7655 63.4721 53.5055 63.6791C54.2455 63.8878 54.9304 63.9311 55.5603 63.8091C56.4266 63.6422 56.8589 63.3469 56.8589 62.9263C56.8589 62.708 56.6306 62.5764 56.174 62.5315C55.7174 62.4865 55.1182 62.4432 54.3782 62.3983C53.6382 62.3533 53.0472 62.2329 52.6068 62.0371C51.9138 61.875 51.4296 61.5973 51.1543 61.2057C50.8791 60.814 50.7414 60.2988 50.7414 59.6584C50.7414 58.5653 51.2644 57.5718 52.3121 56.6745C53.3614 55.7821 54.7183 55.1722 56.3877 54.8495Z" fill="#FF0D23"/>
<path d="M76.0801 58.867C76.4898 58.7884 76.7456 58.6407 76.8476 58.4256C76.9496 58.2105 77.0014 57.8382 77.0014 57.3069L77.0257 53.1112C77.0257 52.3937 77.2298 51.8271 77.6394 51.413C78.0491 50.9989 78.7421 50.6971 79.7185 50.5077C80.1444 50.4259 80.4893 50.405 80.7581 50.4483C81.0253 50.4901 81.2584 50.5976 81.4544 50.771C81.6519 50.9443 81.8009 51.2348 81.9029 51.6441C82.0049 52.0534 82.0794 52.5542 82.128 53.1465C82.1749 53.7388 82.1992 54.5028 82.1992 55.4386C82.1992 56.2668 82.0697 57.0436 81.809 57.7723C81.5499 58.5011 81.2179 59.1158 80.8164 59.615C80.4148 60.1142 79.9468 60.5588 79.4109 60.952C78.8749 61.3453 78.3406 61.6502 77.8046 61.8701C77.2686 62.09 76.7343 62.2521 76.1983 62.3565C74.9223 62.6021 73.75 62.4319 72.6797 61.8412C71.6239 62.8412 70.4597 63.464 69.1837 63.7096C68.6478 63.8123 68.1167 63.8572 67.5888 63.8412C67.0609 63.8267 66.5266 63.7272 65.9825 63.5426C65.4401 63.3597 64.9624 63.0964 64.5543 62.7529C64.1447 62.4111 63.8111 61.9247 63.5504 61.2955C63.2913 60.6663 63.1602 59.9392 63.1602 59.111C63.1602 57.5653 63.2314 56.4096 63.3723 55.6408C63.5148 54.872 63.7496 54.3118 64.0815 53.9587C64.4118 53.6055 64.9316 53.3616 65.6408 53.2251C66.3015 53.0967 66.8294 53.0743 67.2228 53.1545C67.6163 53.2348 67.8964 53.4065 68.0616 53.6714C68.2268 53.9362 68.3093 54.3102 68.3093 54.7949L68.3336 58.9585C68.3336 59.1928 68.3369 59.3598 68.345 59.4593C68.3531 59.5588 68.3725 59.6808 68.4033 59.822C68.434 59.9649 68.4826 60.0564 68.5458 60.0997C68.6089 60.1431 68.6947 60.1768 68.8048 60.2024C68.9149 60.2281 69.0558 60.2233 69.2307 60.1912C69.8606 60.0692 70.2298 59.8188 70.3415 59.4384C70.199 58.53 70.1294 57.5364 70.1294 56.4594C70.1294 55.5541 70.1601 54.8415 70.2233 54.323C70.2864 53.8046 70.4241 53.368 70.6362 53.0133C70.8483 52.6601 71.1123 52.4065 71.428 52.2525C71.7421 52.0984 72.1923 51.9651 72.7736 51.8512C73.2934 51.7517 73.703 51.718 74.001 51.7549C74.3005 51.7902 74.5434 51.9475 74.7329 52.222C74.9223 52.498 75.047 52.8833 75.1102 53.3776C75.1733 53.8736 75.2041 54.5734 75.2041 55.4787C75.2041 56.5717 75.1409 57.5974 75.0146 58.5588C75.128 58.8799 75.4826 58.9826 76.0801 58.867Z" fill="#FF0D23"/>
<path d="M87.6105 60.2956C86.3669 60.5364 85.3354 60.2314 84.5161 59.3823C83.6968 58.5332 83.2871 57.2347 83.2871 55.4868C83.2871 53.7067 83.6919 52.2124 84.5032 51.0022C85.3144 49.7919 86.3491 49.0648 87.6089 48.8225C88.8848 48.5769 90.0653 48.7936 91.1518 49.4725C91.5776 48.6106 92.2626 48.0873 93.2066 47.906C94.0567 47.7422 94.719 47.7984 95.1902 48.0729C95.663 48.349 95.8994 48.9782 95.8994 49.9621V56.0486C95.8994 56.9843 95.7018 57.6745 95.3084 58.1175C94.9149 58.5605 94.2218 58.8767 93.2293 59.0693C92.1897 59.27 91.5048 59.1143 91.1744 58.599C90.1689 59.4658 88.9804 60.0308 87.6105 60.2956ZM90.8214 51.7855C90.5543 51.3842 90.2077 51.2253 89.7819 51.3071C89.3722 51.3858 89.0419 51.7469 88.7893 52.389C88.5367 53.031 88.412 53.734 88.412 54.4997C88.412 55.2171 88.5302 55.8351 88.7666 56.3503C89.003 56.8672 89.3334 57.0838 89.7592 57.002C90.1996 56.9169 90.5543 56.6376 90.8214 56.1641V51.7855Z" fill="#FF0D23"/>
<path d="M102.464 58.6446C102.464 59.9094 102.252 60.8516 101.826 61.4727C101.4 62.0939 100.747 62.4888 99.8648 62.6589C98.9824 62.829 98.3379 62.7087 97.9282 62.2945C97.5186 61.882 97.3145 61.0506 97.3145 59.8018L97.2676 49.9306C97.2676 48.9627 97.504 48.2067 97.9768 47.6626C98.4496 47.1185 99.0795 46.7702 99.8665 46.6193C100.48 46.5005 100.977 46.4796 101.355 46.5551C101.732 46.6305 102.015 46.8681 102.205 47.2693C103.291 46.2164 104.457 45.5712 105.701 45.3304C106.96 45.088 107.992 45.4106 108.795 46.3015C109.598 47.1923 110 48.5357 110 50.3302C110 52.0782 109.59 53.534 108.772 54.6993C107.953 55.8646 106.921 56.566 105.678 56.8068C104.481 57.0379 103.411 56.9801 102.465 56.6302V58.6446H102.464ZM102.464 53.8919C102.731 54.2771 103.086 54.428 103.526 54.343C103.952 54.2611 104.282 53.916 104.519 53.3093C104.755 52.7026 104.873 52.0396 104.873 51.3206C104.873 50.5565 104.747 49.9017 104.496 49.3559C104.243 48.8118 103.913 48.5791 103.503 48.6577C103.077 48.7396 102.731 49.0333 102.464 49.5373V53.8919Z" fill="#FF0D23"/>
<path d="M14.6064 46.348C14.6064 46.348 8.95362 34.5345 15.2023 27.8157C20.7757 21.8223 21.4428 23.3214 24.3899 16.4227C25.6286 13.5207 28.0898 11.2865 31.1308 10.3716C34.0324 9.4984 37.8603 9.89967 40.1661 14.4838C40.7992 15.7438 41.1927 17.1065 41.3627 18.5045C41.4777 19.4515 41.5765 20.7147 41.5198 21.9908C41.3854 25.0485 38.6473 26.5268 36.029 25.7114C31.9031 24.4257 28.1675 23.0164 20.8842 29.318C20.8842 29.318 18.0845 32.1751 18.6998 37.5361C18.9055 39.3273 19.469 41.0608 20.332 42.6499L22.6378 46.73L20.2009 49.1103C20.2009 49.1087 18.7938 43.958 14.6064 46.348Z" fill="#FF0D23"/>
<path d="M20.6092 47.3282C19.7785 45.6188 17.6897 44.9142 15.9749 45.7825C14.3605 46.5995 13.6707 48.5561 14.4188 50.1917C15.2123 51.93 17.2897 52.6699 19.0142 51.8465C19.3915 51.6668 19.7202 51.4276 19.9939 51.1451L20.2189 51.3682L22.0115 53.0808C22.0115 53.0808 27.0052 57.092 34.682 54.6538C41.8148 52.3875 45.892 44.9639 43.8599 37.8181C43.834 37.725 43.5571 36.7651 43.5296 36.6704C42.1921 32.2195 41.5411 29.8071 40.3429 27.6884C38.9358 25.1989 36.2397 23.711 33.3623 23.8233C29.7028 23.9662 24.4355 25.0079 20.8845 29.2999C20.8845 29.2999 13.8181 36.7234 20.3501 44.3765L21.8981 46.6428L20.7743 47.6653L20.6092 47.3282Z" fill="white"/>
<path d="M36.7064 54.3576C36.1008 54.6465 35.471 54.8953 34.8216 55.1024C33.021 55.6754 31.2124 55.945 29.449 55.9081C28.0338 55.8776 26.6445 55.6497 25.3199 55.2308C23.053 54.5149 21.7625 53.4909 21.709 53.4475C21.6977 53.4395 21.688 53.4299 21.6783 53.4202L19.9764 51.7943C19.7433 51.9805 19.489 52.141 19.2154 52.271C18.2633 52.7252 17.193 52.7782 16.2004 52.4219C15.2078 52.0639 14.4208 51.3417 13.9836 50.3866C13.5707 49.4846 13.527 48.4686 13.8606 47.5264C14.1941 46.5842 14.8661 45.8153 15.7567 45.3659C16.6975 44.8892 17.7678 44.8106 18.7701 45.1444C19.6898 45.451 20.4428 46.0689 20.914 46.8988L21.2718 46.5729L19.9667 44.6613C18.4284 42.8524 17.499 40.9006 17.2043 38.8589C16.9679 37.2185 17.1379 35.5219 17.7144 33.8189C18.6568 31.0309 20.3505 29.1754 20.5237 28.9892C24.1606 24.6041 29.4992 23.503 33.34 23.3522C34.8395 23.2928 36.3243 23.6443 37.631 24.3682C38.941 25.0921 40.0194 26.1611 40.7529 27.458C41.8459 29.3921 42.4936 31.559 43.5656 35.1511C43.6967 35.5893 43.8343 36.0516 43.9801 36.5363C44.0108 36.6375 44.2894 37.6085 44.312 37.692C45.3273 41.2633 44.9047 45.0272 43.1203 48.2904C41.6629 50.9548 39.4268 53.0591 36.7064 54.3576ZM22.3179 52.7285C22.4571 52.8344 23.657 53.7268 25.6486 54.3496C26.8841 54.7348 28.1795 54.9435 29.4976 54.9692C31.1476 55.0013 32.8413 54.7444 34.5318 54.2067C37.8691 53.1458 40.6218 50.8858 42.2864 47.8426C43.9526 44.7945 44.346 41.2794 43.3988 37.9456C43.368 37.8349 43.0976 36.8927 43.0701 36.8044C42.9243 36.318 42.7867 35.8574 42.6555 35.4176C41.6014 31.8896 40.9651 29.7597 39.9255 27.917C39.2778 26.7726 38.3257 25.8288 37.1695 25.19C36.015 24.5512 34.7034 24.2414 33.3773 24.2927C29.7275 24.4356 24.6609 25.4725 21.2475 29.5975C21.2411 29.6056 21.233 29.6136 21.2265 29.6216C21.2103 29.6393 19.5052 31.4578 18.6033 34.148C18.0819 35.7065 17.9281 37.2538 18.1467 38.7449C18.4203 40.6084 19.2818 42.4013 20.7083 44.0738C20.7197 44.0867 20.7294 44.0995 20.7391 44.114L22.2871 46.3803C22.4183 46.5729 22.3875 46.833 22.2158 46.9903L21.0921 48.0127C20.982 48.1138 20.8298 48.1556 20.6824 48.1283C20.5351 48.101 20.4104 48.0047 20.3456 47.8715L20.1821 47.5344C19.8356 46.8201 19.2267 46.2888 18.4705 46.0352C17.7127 45.7832 16.9047 45.841 16.1923 46.2038C15.5203 46.5441 15.0118 47.1251 14.7592 47.8378C14.5066 48.552 14.5406 49.3192 14.8515 50.0014C15.1819 50.7237 15.7777 51.271 16.5275 51.5407C17.2788 51.8103 18.0884 51.7702 18.809 51.4267C19.1263 51.2742 19.4113 51.072 19.6526 50.8216C19.7416 50.7301 19.8631 50.6788 19.9894 50.6772C20.1173 50.6755 20.2388 50.7253 20.3294 50.8152L20.5513 51.0351L22.3179 52.7285Z" fill="#FF0D23"/>
<path d="M27.5896 30.4928C28.4931 30.6677 31.7429 33.1893 32.0506 40.5952C32.0716 41.1153 31.9227 41.6369 31.5923 42.0382C31.1713 42.5486 30.4491 42.9114 29.34 41.9258C29.225 41.8231 29.1278 41.7027 29.0517 41.5695C28.7959 41.1185 28.1806 39.9339 27.8308 38.4123L29.9796 36.6306L27.3451 36.3449C27.3451 36.3449 25.1445 33.2953 26.3687 31.1637C26.6164 30.7303 27.0973 30.3981 27.5896 30.4928Z" fill="#FF0D23"/>
<path d="M40.0175 20.145C39.9786 20.1642 39.9349 20.1755 39.8896 20.1787C39.6936 20.1931 39.5236 20.047 39.509 19.8528L39.4977 19.6907C39.3293 17.3441 39.1819 15.3169 36.7919 12.9413C36.6527 12.8033 36.6527 12.5802 36.7919 12.4437C36.9312 12.3057 37.1563 12.3073 37.2939 12.4437C39.8717 15.0039 40.0337 17.2558 40.2053 19.641L40.2166 19.8031C40.2296 19.9507 40.1454 20.0856 40.0175 20.145Z" fill="white"/>
<path d="M36.1453 28.4368C36.1453 28.4368 40.1335 29.5122 40.3067 37.6773C40.3132 37.9614 40.2484 38.2439 40.1108 38.4926C39.821 39.0175 39.1927 39.6788 38.0479 38.8313C36.3477 37.5697 36.2117 34.9117 36.2117 34.9117L37.7516 33.8154L35.3713 33.3837C35.3713 33.382 33.2209 27.9087 36.1453 28.4368Z" fill="#FF0D23"/>
<path d="M14.7007 42.4794C14.6862 42.4858 14.6716 42.4923 14.657 42.4971C14.4708 42.5581 14.27 42.457 14.2085 42.2724C13.4685 40.0317 13.0119 36.1843 13.509 34.0286C13.5527 33.8392 13.7438 33.7205 13.9348 33.7638C14.1259 33.8071 14.2457 33.9965 14.202 34.1859C13.8215 35.8344 14.0045 39.3896 14.8853 42.0541C14.9404 42.2226 14.8594 42.404 14.7007 42.4794Z" fill="white"/>
<path d="M39.8286 21.4009C40.0575 21.4009 40.2431 21.2169 40.2431 20.99C40.2431 20.7631 40.0575 20.5791 39.8286 20.5791C39.5997 20.5791 39.4141 20.7631 39.4141 20.99C39.4141 21.2169 39.5997 21.4009 39.8286 21.4009Z" fill="white"/>
<path d="M14.9223 44.0235C15.1513 44.0235 15.3369 43.8395 15.3369 43.6126C15.3369 43.3856 15.1513 43.2017 14.9223 43.2017C14.6934 43.2017 14.5078 43.3856 14.5078 43.6126C14.5078 43.8395 14.6934 44.0235 14.9223 44.0235Z" fill="white"/>
<path d="M36.5191 44.6981C36.4123 44.6981 36.3038 44.6916 36.1937 44.6772C35.9168 44.6403 35.7225 44.3883 35.7597 44.1122C35.797 43.8377 36.0528 43.6419 36.3297 43.682C37.1037 43.7848 37.8194 43.2438 37.9246 42.4766C37.9748 42.1042 37.8761 41.7351 37.6461 41.4365C37.4162 41.138 37.0826 40.947 36.707 40.8956C35.9297 40.7913 35.2173 41.3338 35.112 42.101C35.0748 42.3755 34.8189 42.5697 34.542 42.5312C34.2652 42.4943 34.0708 42.2423 34.1081 41.9662C34.2862 40.65 35.512 39.7207 36.8414 39.8988C37.4858 39.9839 38.0558 40.313 38.4509 40.825C38.8444 41.337 39.0144 41.9694 38.9286 42.6082C38.7634 43.8169 37.7174 44.6981 36.5191 44.6981Z" fill="#FF0D23"/>
<path d="M16.5073 49.4195C16.4296 49.4195 16.3503 49.3987 16.2774 49.3553C16.0685 49.2301 16.0021 48.9605 16.1284 48.7518C16.5867 48.0038 17.3882 47.5576 18.2707 47.5576C18.5152 47.5576 18.7127 47.7534 18.7127 47.9958C18.7127 48.2382 18.5152 48.434 18.2707 48.434C17.7007 48.434 17.1826 48.7229 16.8846 49.2076C16.8037 49.3441 16.6563 49.4195 16.5073 49.4195Z" fill="#FF0D23"/>
<path d="M27.8024 46.937C27.8024 46.937 31.5477 51.0139 38.3663 48.8727C38.3663 48.8727 36.7616 53.3445 31.4732 51.741C26.9021 50.3542 27.8024 46.937 27.8024 46.937Z" fill="#FF0D23"/>
<path d="M32.8184 52.8181C32.3828 52.8181 31.9537 52.7587 31.536 52.6415C31.4793 52.6239 26.4467 51.0573 27.0102 46.0607C26.9632 45.8954 26.6296 45.4315 26.2783 45.0463C26.1293 44.8841 26.1261 44.637 26.2686 44.47C26.4111 44.3031 26.6572 44.2646 26.845 44.3834C26.9114 44.4251 33.5422 48.5582 39.012 46.8391C39.6645 46.6337 40.2944 46.2838 40.8806 45.7974C41.0684 45.6434 41.3453 45.6674 41.5024 45.852C41.6595 46.0366 41.6352 46.3127 41.449 46.4684L40.7818 47.0205C40.5697 47.3496 39.5544 48.8664 38.0615 50.274C36.2787 51.9562 34.4894 52.8181 32.8184 52.8181ZM27.8894 45.9612C27.8975 46.0206 27.8991 46.0767 27.8927 46.1281C27.3891 50.4137 31.6056 51.7443 31.7853 51.7989C34.8068 52.6544 37.7846 49.5116 39.2063 47.6963C34.9558 48.9948 30.2503 47.1409 27.8894 45.9612ZM27.015 46.0751H27.0166H27.015Z" fill="#FF0D23"/>
</svg>
